<svg width="131" height="26" viewBox="0 0 131 26" fill="none" xmlns="http://www.w3.org/2000/svg">
<path d="M7.06613 1.03735C5.61667 1.69966 4.32071 2.65772 3.26089 3.85045C2.19887 5.06198 1.37814 6.46645 0.843094 7.98789C-0.281031 11.2425 -0.281031 14.7818 0.843094 18.0364C1.37574 19.5598 2.19671 20.9657 3.26089 22.1768C4.32231 23.3633 5.61818 24.3153 7.06613 24.9722C8.61482 25.6679 10.2957 26.0176 11.9925 25.9971H28.4633V10.525H8.70531V15.4934H23.5106V21.0315H11.9954C10.9862 21.0462 9.98636 20.8356 9.06828 20.4149C8.22483 20.0196 7.47684 19.4456 6.87586 18.7323C6.25321 17.9774 5.77759 17.1118 5.47378 16.1806C4.8065 14.1163 4.8065 11.8933 5.47378 9.82904C5.77711 8.90028 6.25283 8.03746 6.87586 7.28609C7.4782 6.57007 8.22688 5.99226 9.0712 5.59177C9.98781 5.16604 10.9883 4.95324 11.9983 4.96924H28.4692V0.000790072H11.9954C10.2966 -0.0190438 8.61402 0.334773 7.06613 1.03735Z" fill="white"/>
<path d="M34.8327 6.5696H30.1815V25.9941H34.8327V6.5696Z" fill="white"/>
<path d="M34.3146 0.767193C34.0825 0.534953 33.8096 0.347794 33.5097 0.215151C33.1968 0.0738304 32.8576 0.000762683 32.5144 0.000787749C32.1665 -0.000513525 31.8222 0.0725646 31.5046 0.215151C31.2037 0.347717 30.9298 0.534863 30.6967 0.767193C30.464 1.00181 30.2782 1.2789 30.1493 1.58352C30.0161 1.89889 29.9474 2.23792 29.9474 2.58045C29.9474 2.92297 30.0161 3.262 30.1493 3.57737C30.412 4.18854 30.8995 4.6745 31.5104 4.934C31.8278 5.06976 32.1695 5.13872 32.5144 5.13661C32.8536 5.13781 33.1894 5.06883 33.5009 4.934C33.8045 4.80467 34.0807 4.61829 34.3146 4.38489C34.5452 4.1519 34.7308 3.87811 34.862 3.57737C34.9978 3.26126 35.0666 2.92026 35.064 2.57604C35.0646 2.23979 34.9987 1.90675 34.8701 1.59624C34.7415 1.28573 34.5526 1.00393 34.3146 0.767193Z" fill="white"/>
<path d="M55.8874 9.42675C55.0098 8.54361 53.9728 7.83606 52.8315 7.34188C51.647 6.82363 50.3682 6.55766 49.076 6.56079H36.1323V25.9853H40.7864V11.2239H49.079C49.7482 11.2272 50.4097 11.3681 51.0226 11.6379C51.6147 11.8968 52.153 12.2654 52.6091 12.7244C53.0626 13.1883 53.4259 13.733 53.6804 14.3306C53.9411 14.9492 54.0736 15.6146 54.0697 16.2863V25.9971H58.7238V16.2863C58.7304 14.9888 58.4724 13.7037 57.9657 12.51C57.4738 11.3595 56.7685 10.3132 55.8874 9.42675Z" fill="white"/>
<path d="M77.3578 6.56079H69.0477C67.7566 6.56534 66.4799 6.83308 65.2951 7.34775C64.1549 7.84061 63.1195 8.54837 62.2451 9.43262C61.3769 10.3202 60.6819 11.363 60.1961 12.5071C59.6957 13.7007 59.4379 14.9826 59.4379 16.2775C59.4379 17.5724 59.6957 18.8542 60.1961 20.0478C60.6811 21.1941 61.3761 22.239 62.2451 23.1282C63.1193 24.0134 64.1547 24.7221 65.2951 25.216C66.4814 25.7305 67.7612 25.9925 69.0535 25.9853H74.1848V21.3311H69.0623C68.3933 21.3255 67.7323 21.1847 67.1187 20.917C65.9243 20.3977 64.9755 19.4364 64.4697 18.2331C64.2117 17.6169 64.0813 16.9546 64.0862 16.2863C64.0795 14.9495 64.5992 13.6641 65.5322 12.7097C65.9879 12.2495 66.5262 11.8799 67.1187 11.6203C67.7288 11.3535 68.388 11.2184 69.0535 11.2238H77.3578V25.9971H82.0089V0.000788594H77.3578V6.56079Z" fill="white"/>
<path d="M102.285 18.9232C103.05 18.6026 103.745 18.137 104.334 17.5519C104.915 16.9665 105.38 16.276 105.704 15.5169C106.036 14.7198 106.207 13.8644 106.207 13.0004C106.207 12.1364 106.036 11.281 105.704 10.4839C105.38 9.72476 104.915 9.03424 104.334 8.44892C103.745 7.86381 103.05 7.3982 102.285 7.07761C101.496 6.74076 100.646 6.5689 99.7882 6.57254H92.3329C91.0418 6.57741 89.7652 6.84514 88.5803 7.3595C87.4405 7.85307 86.4052 8.56073 85.5303 9.44437C84.661 10.3311 83.9659 11.3741 83.4813 12.5188C82.979 13.7104 82.7202 14.991 82.7202 16.2848C82.7202 17.5786 82.979 18.8592 83.4813 20.0508C83.9659 21.1955 84.661 22.2385 85.5303 23.1252C86.4052 24.0089 87.4405 24.7165 88.5803 25.2101C89.7671 25.7251 91.0457 25.9928 92.3387 25.9971H103.749V21.3311H92.3475C91.8673 21.3332 91.3896 21.2619 90.9308 21.1196C90.4861 20.9859 90.0631 20.7881 89.675 20.5324C89.2883 20.2764 88.9386 19.9681 88.6359 19.6162L88.4808 19.4312H99.7765C100.639 19.4358 101.492 19.2629 102.285 18.9232ZM87.6144 14.7828C87.7106 14.4664 87.838 14.1605 87.9949 13.8696C88.2736 13.3493 88.64 12.8814 89.0779 12.4865C89.5189 12.0893 90.0262 11.7732 90.5766 11.5527C91.1427 11.3269 91.7471 11.2133 92.3563 11.218H99.7853C100.013 11.2157 100.239 11.2638 100.447 11.3589C100.664 11.453 100.863 11.5864 101.032 11.7524C101.195 11.9158 101.324 12.1093 101.413 12.3221C101.503 12.5346 101.549 12.7635 101.547 12.9945C101.55 13.2314 101.504 13.4662 101.413 13.6846C101.323 13.8961 101.194 14.0885 101.032 14.2513C100.87 14.4146 100.677 14.5443 100.464 14.6331C100.253 14.7259 100.025 14.773 99.7941 14.7711L87.6144 14.7828Z" fill="white"/>
<path d="M130.997 6.56079C128.891 6.56091 126.807 6.97867 124.863 7.79003C122.919 8.60138 121.154 9.79032 119.669 11.2885L118.176 12.7948L121.548 15.8076L130.997 6.56079Z" fill="white"/>
<path d="M111.04 6.56079H104.381L114.386 16.3039L104.372 25.9941H111.043L117.635 19.4811L119.584 21.3722C122.648 24.3399 126.741 25.9989 131 26L111.04 6.56079Z" fill="white"/>
<path d="M39.1912 4.1118H75.4874C75.4874 3.29407 75.1635 2.50983 74.5872 1.93161C74.0108 1.35338 73.229 1.02854 72.4139 1.02854H36.1323C36.1331 1.8435 36.4552 2.62508 37.0282 3.20271C37.6013 3.78035 38.3788 4.10715 39.1912 4.1118Z" fill="white"/>
</svg>
