<svg xmlns="http://www.w3.org/2000/svg" width="428" height="114" fill="none" viewBox="0 0 428 114"><path fill="#F0932B" d="M30.2772 3.27165C25.7075 5.36046 21.6218 8.38205 18.2805 12.1437C14.9323 15.9647 12.3448 20.3942 10.658 25.1926C7.114 35.457 7.114 46.6195 10.658 56.884C12.3373 61.6886 14.9255 66.1226 18.2805 69.9421C21.6268 73.6841 25.7123 76.6866 30.2772 78.7586C35.1597 80.9527 40.459 82.0555 45.8083 81.9907H97.7355V33.1942H35.445V48.8639H82.1213V66.3303H45.8175C42.6358 66.3765 39.4837 65.7121 36.5893 64.3854C33.9302 63.1388 31.572 61.3283 29.6773 59.0789C27.7143 56.698 26.2149 53.9679 25.257 51.031C23.1533 44.5206 23.1533 37.5096 25.257 30.9993C26.2133 28.0701 27.7131 25.3489 29.6773 22.9792C31.5763 20.721 33.9367 18.8987 36.5985 17.6356C39.4883 16.2929 42.6427 15.6218 45.8267 15.6722H97.7539V0.00249177H45.8175C40.4616 -0.0600612 35.1572 1.05582 30.2772 3.27165Z"/><path fill="#F9CA24" d="M117.816 20.7195H103.152V81.9815H117.816V20.7195Z"/><path fill="#F9CA24" d="M116.183 2.41961C115.451 1.68716 114.591 1.09689 113.645 0.678553C112.659 0.23285 111.589 0.00240539 110.507 0.00248444C109.41 -0.00161958 108.325 0.228858 107.324 0.678553C106.375 1.09665 105.512 1.68688 104.777 2.41961C104.043 3.15956 103.457 4.03344 103.051 4.99419C102.631 5.98881 102.414 7.05807 102.414 8.13834C102.414 9.21861 102.631 10.2878 103.051 11.2825C103.879 13.21 105.416 14.7427 107.342 15.5611C108.342 15.9892 109.42 16.2067 110.507 16.2001C111.577 16.2039 112.635 15.9863 113.617 15.5611C114.575 15.1532 115.445 14.5654 116.183 13.8293C116.91 13.0944 117.495 12.231 117.908 11.2825C118.337 10.2855 118.553 9.21004 118.545 8.12443C118.547 7.06394 118.339 6.01359 117.934 5.03429C117.528 4.055 116.933 3.16625 116.183 2.41961Z"/><path fill="#F9CA24" d="M184.195 29.7305C181.428 26.9452 178.158 24.7137 174.56 23.1552C170.826 21.5207 166.795 20.6818 162.721 20.6917H121.913V81.9537H136.586V35.3983H162.73C164.84 35.4088 166.925 35.8532 168.857 36.7041C170.724 37.5207 172.421 38.6832 173.859 40.1307C175.289 41.5939 176.434 43.3119 177.237 45.1965C178.059 47.1475 178.476 49.2461 178.464 51.3644V81.9907H193.137V51.3644C193.158 47.2724 192.344 43.2195 190.747 39.4547C189.196 35.8261 186.973 32.5263 184.195 29.7305Z"/><path fill="#F9CA24" d="M251.884 20.6917H225.685C221.614 20.7061 217.589 21.5505 213.854 23.1737C210.259 24.7281 206.995 26.9602 204.238 29.749C201.501 32.5484 199.31 35.8371 197.779 39.4454C196.201 43.2099 195.388 47.2527 195.388 51.3366C195.388 55.4205 196.201 59.4633 197.779 63.2278C199.308 66.843 201.499 70.1382 204.238 72.9427C206.995 75.7345 210.259 77.9697 213.854 79.5273C217.594 81.15 221.629 81.9763 225.703 81.9537H241.88V67.2749H225.731C223.622 67.2574 221.538 66.8133 219.603 65.9691C215.838 64.3312 212.847 61.2994 211.252 57.5045C210.439 55.5611 210.027 53.4721 210.043 51.3644C210.022 47.1483 211.66 43.0944 214.602 40.0844C216.038 38.6331 217.735 37.4674 219.603 36.6485C221.527 35.8071 223.605 35.3811 225.703 35.3983H251.884V81.9907H266.547V0.0024871H251.884V20.6917Z"/><path fill="#F9CA24" d="M330.471 59.6808C332.882 58.6697 335.075 57.2012 336.931 55.3559C338.762 53.5099 340.227 51.3321 341.25 48.938C342.297 46.424 342.837 43.7262 342.837 41.0012C342.837 38.2763 342.297 35.5784 341.25 33.0645C340.227 30.6704 338.762 28.4926 336.931 26.6466C335.075 24.8013 332.882 23.3328 330.471 22.3217C327.982 21.2593 325.304 20.7173 322.599 20.7288H299.095C295.025 20.7442 291 21.5885 287.265 23.2107C283.671 24.7674 280.407 26.9992 277.649 29.7861C274.908 32.5827 272.717 35.8721 271.189 39.4824C269.606 43.2406 268.79 47.2794 268.79 51.3597C268.79 55.4401 269.606 59.4789 271.189 63.2371C272.717 66.8474 274.908 70.1368 277.649 72.9334C280.407 75.7203 283.671 77.9521 287.265 79.5088C291.006 81.133 295.037 81.9773 299.114 81.9907H335.085V67.2749H299.141C297.627 67.2816 296.121 67.0567 294.675 66.6081C293.273 66.1863 291.939 65.5624 290.716 64.7559C289.497 63.9488 288.394 62.9764 287.44 61.8664L286.951 61.283H322.563C325.28 61.2976 327.972 60.7523 330.471 59.6808ZM284.219 46.6227C284.523 45.6249 284.924 44.6601 285.419 43.7425C286.298 42.1016 287.453 40.6258 288.833 39.3806C290.224 38.1279 291.823 37.131 293.558 36.4355C295.343 35.7234 297.248 35.3649 299.169 35.3798H322.59C323.31 35.3725 324.022 35.5243 324.676 35.8243C325.362 36.1211 325.987 36.5417 326.521 37.0653C327.033 37.5806 327.441 38.1908 327.721 38.8619C328.006 39.5323 328.15 40.2541 328.146 40.9827C328.154 41.7297 328.009 42.4704 327.721 43.1591C327.439 43.8263 327.031 44.433 326.521 44.9465C326.009 45.4616 325.401 45.8706 324.731 46.1504C324.065 46.4433 323.345 46.5917 322.618 46.5857L284.219 46.6227Z"/><path fill="#F9CA24" d="M420.991 20.6917C414.352 20.6921 407.78 22.0097 401.651 24.5685C395.522 27.1274 389.957 30.8771 385.278 35.602L380.571 40.353L391.202 49.8548L420.991 20.6917Z"/><path fill="#F9CA24" d="M358.073 20.6917H337.079L368.621 51.4199L337.051 81.9815H358.082L378.864 61.4404L385.01 67.4045C394.67 76.7642 407.572 81.9966 421 82L358.073 20.6917Z"/><path fill="#F0932B" d="M131.557 12.968H245.987C245.987 10.389 244.966 7.91562 243.149 6.09199C241.332 4.26836 238.867 3.24386 236.297 3.24386H121.913C121.916 5.81411 122.931 8.27909 124.738 10.1009C126.544 11.9226 128.996 12.9533 131.557 12.968Z"/><path fill="#D2DAE2" d="M10.4 103.4C10.08 102.813 9.64 102.367 9.08 102.06C8.52 101.753 7.86667 101.6 7.12 101.6C6.29333 101.6 5.56 101.787 4.92 102.16C4.28 102.533 3.78 103.067 3.42 103.76C3.06 104.453 2.88 105.253 2.88 106.16C2.88 107.093 3.06 107.907 3.42 108.6C3.79333 109.293 4.30667 109.827 4.96 110.2C5.61333 110.573 6.37333 110.76 7.24 110.76C8.30667 110.76 9.18 110.48 9.86 109.92C10.54 109.347 10.9867 108.553 11.2 107.54H6.4V105.4H13.96V107.84C13.7733 108.813 13.3733 109.713 12.76 110.54C12.1467 111.367 11.3533 112.033 10.38 112.54C9.42 113.033 8.34 113.28 7.14 113.28C5.79333 113.28 4.57333 112.98 3.48 112.38C2.4 111.767 1.54667 110.92 0.92 109.84C0.306667 108.76 0 107.533 0 106.16C0 104.787 0.306667 103.56 0.92 102.48C1.54667 101.387 2.4 100.54 3.48 99.94C4.57333 99.3267 5.78667 99.02 7.12 99.02C8.69333 99.02 10.06 99.4067 11.22 100.18C12.38 100.94 13.18 102.013 13.62 103.4H10.4Z"/><path fill="#D2DAE2" d="M32.5116 113.3C31.2049 113.3 30.0049 112.993 28.9116 112.38C27.8182 111.767 26.9516 110.92 26.3116 109.84C25.6716 108.747 25.3516 107.513 25.3516 106.14C25.3516 104.78 25.6716 103.56 26.3116 102.48C26.9516 101.387 27.8182 100.533 28.9116 99.92C30.0049 99.3067 31.2049 99 32.5116 99C33.8316 99 35.0316 99.3067 36.1116 99.92C37.2049 100.533 38.0649 101.387 38.6916 102.48C39.3316 103.56 39.6516 104.78 39.6516 106.14C39.6516 107.513 39.3316 108.747 38.6916 109.84C38.0649 110.92 37.2049 111.767 36.1116 112.38C35.0182 112.993 33.8182 113.3 32.5116 113.3ZM32.5116 110.8C33.3516 110.8 34.0916 110.613 34.7316 110.24C35.3716 109.853 35.8716 109.307 36.2316 108.6C36.5916 107.893 36.7716 107.073 36.7716 106.14C36.7716 105.207 36.5916 104.393 36.2316 103.7C35.8716 102.993 35.3716 102.453 34.7316 102.08C34.0916 101.707 33.3516 101.52 32.5116 101.52C31.6716 101.52 30.9249 101.707 30.2716 102.08C29.6316 102.453 29.1316 102.993 28.7716 103.7C28.4116 104.393 28.2316 105.207 28.2316 106.14C28.2316 107.073 28.4116 107.893 28.7716 108.6C29.1316 109.307 29.6316 109.853 30.2716 110.24C30.9249 110.613 31.6716 110.8 32.5116 110.8Z"/><path fill="#D2DAE2" d="M58.2147 113.3C56.908 113.3 55.708 112.993 54.6147 112.38C53.5214 111.767 52.6547 110.92 52.0147 109.84C51.3747 108.747 51.0547 107.513 51.0547 106.14C51.0547 104.78 51.3747 103.56 52.0147 102.48C52.6547 101.387 53.5214 100.533 54.6147 99.92C55.708 99.3067 56.908 99 58.2147 99C59.5347 99 60.7347 99.3067 61.8147 99.92C62.908 100.533 63.768 101.387 64.3947 102.48C65.0347 103.56 65.3547 104.78 65.3547 106.14C65.3547 107.513 65.0347 108.747 64.3947 109.84C63.768 110.92 62.908 111.767 61.8147 112.38C60.7214 112.993 59.5214 113.3 58.2147 113.3ZM58.2147 110.8C59.0547 110.8 59.7947 110.613 60.4347 110.24C61.0747 109.853 61.5747 109.307 61.9347 108.6C62.2947 107.893 62.4747 107.073 62.4747 106.14C62.4747 105.207 62.2947 104.393 61.9347 103.7C61.5747 102.993 61.0747 102.453 60.4347 102.08C59.7947 101.707 59.0547 101.52 58.2147 101.52C57.3747 101.52 56.628 101.707 55.9747 102.08C55.3347 102.453 54.8347 102.993 54.4747 103.7C54.1147 104.393 53.9347 105.207 53.9347 106.14C53.9347 107.073 54.1147 107.893 54.4747 108.6C54.8347 109.307 55.3347 109.853 55.9747 110.24C56.628 110.613 57.3747 110.8 58.2147 110.8Z"/><path fill="#D2DAE2" d="M87.1578 103.4C86.8378 102.813 86.3978 102.367 85.8378 102.06C85.2778 101.753 84.6245 101.6 83.8778 101.6C83.0511 101.6 82.3178 101.787 81.6778 102.16C81.0378 102.533 80.5378 103.067 80.1778 103.76C79.8178 104.453 79.6378 105.253 79.6378 106.16C79.6378 107.093 79.8178 107.907 80.1778 108.6C80.5511 109.293 81.0645 109.827 81.7178 110.2C82.3711 110.573 83.1311 110.76 83.9978 110.76C85.0645 110.76 85.9378 110.48 86.6178 109.92C87.2978 109.347 87.7445 108.553 87.9578 107.54H83.1578V105.4H90.7178V107.84C90.5311 108.813 90.1311 109.713 89.5178 110.54C88.9045 111.367 88.1111 112.033 87.1378 112.54C86.1778 113.033 85.0978 113.28 83.8978 113.28C82.5511 113.28 81.3311 112.98 80.2378 112.38C79.1578 111.767 78.3045 110.92 77.6778 109.84C77.0645 108.76 76.7578 107.533 76.7578 106.16C76.7578 104.787 77.0645 103.56 77.6778 102.48C78.3045 101.387 79.1578 100.54 80.2378 99.94C81.3311 99.3267 82.5445 99.02 83.8778 99.02C85.4511 99.02 86.8178 99.4067 87.9778 100.18C89.1378 100.94 89.9378 102.013 90.3778 103.4H87.1578Z"/><path fill="#D2DAE2" d="M105.589 110.94H110.189V113.16H102.789V99.2H105.589V110.94Z"/><path fill="#D2DAE2" d="M124.769 101.46V104.96H129.469V107.18H124.769V110.88H130.069V113.16H121.969V99.18H130.069V101.46H124.769Z"/><path fill="#D2DAE2" d="M160.179 99.2V113.16H157.379V99.2H160.179Z"/><path fill="#D2DAE2" d="M184.886 113.16H182.086L175.746 103.58V113.16H172.946V99.18H175.746L182.086 108.78V99.18H184.886V113.16Z"/><path fill="#D2DAE2" d="M202.533 99.2C203.999 99.2 205.286 99.4867 206.393 100.06C207.513 100.633 208.373 101.453 208.973 102.52C209.586 103.573 209.893 104.8 209.893 106.2C209.893 107.6 209.586 108.827 208.973 109.88C208.373 110.92 207.513 111.727 206.393 112.3C205.286 112.873 203.999 113.16 202.533 113.16H197.653V99.2H202.533ZM202.433 110.78C203.899 110.78 205.033 110.38 205.833 109.58C206.633 108.78 207.033 107.653 207.033 106.2C207.033 104.747 206.633 103.613 205.833 102.8C205.033 101.973 203.899 101.56 202.433 101.56H200.453V110.78H202.433Z"/><path fill="#D2DAE2" d="M224.789 101.46V104.96H229.489V107.18H224.789V110.88H230.089V113.16H221.989V99.18H230.089V101.46H224.789Z"/><path fill="#D2DAE2" d="M250.993 113.16L247.973 108.46L245.233 113.16H242.073L246.473 106.12L242.013 99.2H245.233L248.253 103.88L250.973 99.2H254.133L249.753 106.22L254.213 113.16H250.993Z"/><path fill="#D2DAE2" d="M269.144 99.2V113.16H266.344V99.2H269.144Z"/><path fill="#D2DAE2" d="M293.85 113.16H291.05L284.71 103.58V113.16H281.91V99.18H284.71L291.05 108.78V99.18H293.85V113.16Z"/><path fill="#D2DAE2" d="M316.337 103.4C316.017 102.813 315.577 102.367 315.017 102.06C314.457 101.753 313.804 101.6 313.057 101.6C312.231 101.6 311.498 101.787 310.858 102.16C310.217 102.533 309.717 103.067 309.358 103.76C308.998 104.453 308.818 105.253 308.818 106.16C308.818 107.093 308.998 107.907 309.358 108.6C309.731 109.293 310.244 109.827 310.897 110.2C311.551 110.573 312.311 110.76 313.177 110.76C314.244 110.76 315.117 110.48 315.797 109.92C316.477 109.347 316.924 108.553 317.138 107.54H312.337V105.4H319.897V107.84C319.711 108.813 319.311 109.713 318.698 110.54C318.084 111.367 317.291 112.033 316.318 112.54C315.358 113.033 314.278 113.28 313.078 113.28C311.731 113.28 310.511 112.98 309.418 112.38C308.338 111.767 307.484 110.92 306.858 109.84C306.244 108.76 305.938 107.533 305.938 106.16C305.938 104.787 306.244 103.56 306.858 102.48C307.484 101.387 308.338 100.54 309.418 99.94C310.511 99.3267 311.724 99.02 313.057 99.02C314.631 99.02 315.997 99.4067 317.158 100.18C318.318 100.94 319.117 102.013 319.557 103.4H316.337Z"/><path fill="#D2DAE2" d="M356.235 99.2V101.46H352.515V113.16H349.715V101.46H345.995V99.2H356.235Z"/><path fill="#D2DAE2" d="M374.758 113.3C373.451 113.3 372.251 112.993 371.158 112.38C370.064 111.767 369.198 110.92 368.558 109.84C367.918 108.747 367.598 107.513 367.598 106.14C367.598 104.78 367.918 103.56 368.558 102.48C369.198 101.387 370.064 100.533 371.158 99.92C372.251 99.3067 373.451 99 374.758 99C376.078 99 377.278 99.3067 378.358 99.92C379.451 100.533 380.311 101.387 380.938 102.48C381.578 103.56 381.898 104.78 381.898 106.14C381.898 107.513 381.578 108.747 380.938 109.84C380.311 110.92 379.451 111.767 378.358 112.38C377.264 112.993 376.064 113.3 374.758 113.3ZM374.758 110.8C375.598 110.8 376.338 110.613 376.978 110.24C377.618 109.853 378.118 109.307 378.478 108.6C378.838 107.893 379.018 107.073 379.018 106.14C379.018 105.207 378.838 104.393 378.478 103.7C378.118 102.993 377.618 102.453 376.978 102.08C376.338 101.707 375.598 101.52 374.758 101.52C373.918 101.52 373.171 101.707 372.518 102.08C371.878 102.453 371.378 102.993 371.018 103.7C370.658 104.393 370.478 105.207 370.478 106.14C370.478 107.073 370.658 107.893 371.018 108.6C371.378 109.307 371.878 109.853 372.518 110.24C373.171 110.613 373.918 110.8 374.758 110.8Z"/><path fill="#D2DAE2" d="M400.461 113.3C399.154 113.3 397.954 112.993 396.861 112.38C395.767 111.767 394.901 110.92 394.261 109.84C393.621 108.747 393.301 107.513 393.301 106.14C393.301 104.78 393.621 103.56 394.261 102.48C394.901 101.387 395.767 100.533 396.861 99.92C397.954 99.3067 399.154 99 400.461 99C401.781 99 402.981 99.3067 404.061 99.92C405.154 100.533 406.014 101.387 406.641 102.48C407.281 103.56 407.601 104.78 407.601 106.14C407.601 107.513 407.281 108.747 406.641 109.84C406.014 110.92 405.154 111.767 404.061 112.38C402.967 112.993 401.767 113.3 400.461 113.3ZM400.461 110.8C401.301 110.8 402.041 110.613 402.681 110.24C403.321 109.853 403.821 109.307 404.181 108.6C404.541 107.893 404.721 107.073 404.721 106.14C404.721 105.207 404.541 104.393 404.181 103.7C403.821 102.993 403.321 102.453 402.681 102.08C402.041 101.707 401.301 101.52 400.461 101.52C399.621 101.52 398.874 101.707 398.221 102.08C397.581 102.453 397.081 102.993 396.721 103.7C396.361 104.393 396.181 105.207 396.181 106.14C396.181 107.073 396.361 107.893 396.721 108.6C397.081 109.307 397.581 109.853 398.221 110.24C398.874 110.613 399.621 110.8 400.461 110.8Z"/><path fill="#D2DAE2" d="M422.484 110.94H427.084V113.16H419.684V99.2H422.484V110.94Z"/></svg>