<svg width="26" height="26" viewBox="0 0 26 26" fill="none" xmlns="http://www.w3.org/2000/svg">
<path fill-rule="evenodd" clip-rule="evenodd" d="M13 0C5.8175 0 0 5.96465 0 13.3288C0 19.2268 3.72125 24.2085 8.88875 25.9745C9.53875 26.0912 9.7825 25.6913 9.7825 25.3414C9.7825 25.0249 9.76625 23.9752 9.76625 22.8589C6.5 23.4754 5.655 22.0425 5.395 21.2928C5.24875 20.9096 4.615 19.7267 4.0625 19.4101C3.6075 19.1602 2.9575 18.5437 4.04625 18.5271C5.07 18.5104 5.80125 19.4934 6.045 19.8933C7.215 21.9092 9.08375 21.3428 9.83125 20.9929C9.945 20.1265 10.2863 19.5434 10.66 19.2102C7.7675 18.8769 4.745 17.7273 4.745 12.6291C4.745 11.1795 5.24875 9.97995 6.0775 9.04694C5.9475 8.71372 5.4925 7.34751 6.2075 5.5148C6.2075 5.5148 7.29625 5.16492 9.7825 6.881C10.8225 6.5811 11.9275 6.43116 13.0325 6.43116C14.1375 6.43116 15.2425 6.5811 16.2825 6.881C18.7688 5.14826 19.8575 5.5148 19.8575 5.5148C20.5725 7.34751 20.1175 8.71372 19.9875 9.04694C20.8163 9.97995 21.32 11.1629 21.32 12.6291C21.32 17.744 18.2813 18.8769 15.3888 19.2102C15.86 19.6267 16.2663 20.4264 16.2663 21.676C16.2663 23.4587 16.25 24.8916 16.25 25.3414C16.25 25.6913 16.4938 26.1078 17.1438 25.9745C19.7244 25.0812 21.9669 23.3806 23.5556 21.1121C25.1443 18.8437 25.9992 16.1215 26 13.3288C26 5.96465 20.1825 0 13 0Z" fill="white"/>
</svg>
